<svg width="18" height="17" viewBox="0 0 18 17" fill="none" xmlns="http://www.w3.org/2000/svg">
<path d="M3.57 13.1075C3.57 13.1075 3.63 13.1075 3.6525 13.1075L5.85 12.905C6.1575 12.875 6.4425 12.74 6.66 12.5225L14.955 4.22745C15.345 3.83745 15.5625 3.31995 15.5625 2.77245C15.5625 2.22495 15.345 1.70745 14.955 1.31745L14.4225 0.784951C13.6425 0.00495118 12.285 0.00495118 11.505 0.784951L10.4475 1.84245L3.2175 9.07245C3 9.28995 2.865 9.57495 2.8425 9.88245L2.64 12.08C2.6175 12.3575 2.715 12.6275 2.91 12.83C3.09 13.01 3.3225 13.1075 3.57 13.1075ZM12.9675 1.30245C13.2075 1.30245 13.4475 1.39245 13.6275 1.57995L14.16 2.11245C14.34 2.29245 14.4375 2.52495 14.4375 2.77245C14.4375 3.01995 14.34 3.25995 14.16 3.43245L13.5 4.09245L11.6475 2.23995L12.3075 1.57995C12.4875 1.39995 12.7275 1.30245 12.9675 1.30245ZM3.96 9.98745C3.96 9.94245 3.9825 9.90495 4.0125 9.87495L10.845 3.03495L12.6975 4.88745L5.865 11.7199C5.865 11.7199 5.79 11.7725 5.7525 11.7725L3.78 11.9525L3.96 9.97995V9.98745ZM17.0625 15.5C17.0625 15.8075 16.8075 16.0625 16.5 16.0625H1.5C1.1925 16.0625 0.9375 15.8075 0.9375 15.5C0.9375 15.1925 1.1925 14.9375 1.5 14.9375H16.5C16.8075 14.9375 17.0625 15.1925 17.0625 15.5Z" fill="white"/>
</svg>
