<svg width="12" height="12" viewBox="0 0 12 12" fill="none" xmlns="http://www.w3.org/2000/svg">
<g clip-path="url(#clip0_9810_10984)">
<path d="M11.8831 6.13813C11.8831 5.73026 11.8501 5.32019 11.7795 4.91895H6.12012V7.22944H9.36098C9.2265 7.97461 8.79438 8.63381 8.16164 9.0527V10.5519H10.0951C11.2305 9.50686 11.8831 7.96359 11.8831 6.13813Z" fill="white"/>
<path d="M6.11956 12.0004C7.73779 12.0004 9.10248 11.4691 10.0968 10.5519L8.16329 9.05277C7.62535 9.41875 6.93088 9.62599 6.12177 9.62599C4.55645 9.62599 3.22924 8.56995 2.75304 7.15015H0.757812V8.69562C1.77637 10.7217 3.85096 12.0004 6.11956 12.0004Z" fill="white"/>
<path d="M2.75139 7.15011C2.50005 6.40493 2.50005 5.59802 2.75139 4.85284V3.30737H0.758368C-0.0926331 5.00276 -0.0926331 7.00019 0.758368 8.69558L2.75139 7.15011Z" fill="white"/>
<path d="M6.11956 2.37483C6.97497 2.3616 7.80172 2.68348 8.42123 3.27433L10.1343 1.56131C9.04956 0.542752 7.60992 -0.017233 6.11956 0.000404333C3.85096 0.000404333 1.77637 1.27911 0.757812 3.3074L2.75083 4.85288C3.22483 3.43087 4.55425 2.37483 6.11956 2.37483Z" fill="white"/>
</g>
<defs>
<clipPath id="clip0_9810_10984">
<rect width="12" height="12" fill="white"/>
</clipPath>
</defs>
</svg>
