<svg width="30" height="30" viewBox="0 0 30 30" fill="none" xmlns="http://www.w3.org/2000/svg">
<rect width="30" height="30" rx="4" fill="#EFFFE5"/>
<path d="M16.3776 21.8962C14.7228 21.4495 13.4355 20.4669 12.1717 19.303C11.2697 18.4719 10.4813 17.9295 9.23675 17.8526C8.57283 17.8108 7.89742 17.8858 7.20836 18.0751C7.11285 18.1025 7.10601 18.0871 7.18648 18.0301C9.27511 16.5709 11.4348 15.6333 13.8688 15.9249C15.8074 16.1577 17.2702 17.1156 18.2571 18.7997C18.3467 18.9507 18.3671 18.942 18.3198 18.7725C18.1543 18.1785 17.9664 17.5663 17.7587 16.9349C17.0015 14.639 15.3606 12.8557 12.8985 12.4649C11.8691 12.3018 10.8832 12.3321 9.94065 12.5571C8.54948 12.8879 7.14678 13.4927 5.73121 14.3724C4.72715 14.995 3.73773 15.5838 2.76183 16.1376C2.36481 16.3623 1.95449 16.5636 1.53223 16.7405C1.49522 16.7559 1.48866 16.8051 1.52 16.8305C2.03333 17.2491 2.47462 17.6697 2.84399 18.091C3.49707 18.8366 4.18951 19.5901 4.92378 20.3507C6.30442 21.7842 7.94836 23.0698 9.91492 23.5273C12.3362 24.0914 14.4982 23.5814 16.3995 21.9972C16.4357 21.967 16.4238 21.9085 16.3776 21.8962Z" fill="#368501"/>
<path d="M18.5045 6.88948C17.6136 6.3603 16.5445 5.92379 15.2949 5.57964C13.2039 5.00151 11.0104 4.91753 8.82015 5.06158C8.7846 5.06381 8.76208 5.10273 8.77939 5.13385C9.75765 6.95343 10.0344 9.02056 10.1912 11.0832C10.1932 11.109 10.2156 11.1272 10.2415 11.124C11.9982 10.8913 13.6565 11.0827 15.2163 11.698C15.2664 11.7181 15.279 11.7036 15.2561 11.6561C15.0055 11.1503 14.8912 10.6009 14.6513 10.0866C14.4637 9.68383 14.2552 9.26177 14.0242 8.82144C13.9768 8.73105 13.9847 8.72583 14.0477 8.80694C14.9868 10.0134 15.9515 11.353 16.9419 12.8257C17.773 14.0619 18.4845 15.3788 19.0765 16.7753C19.1571 16.963 19.2091 16.9553 19.2337 16.7522C19.2624 16.5106 19.3101 16.2625 19.3777 16.0105C19.6185 15.1064 19.7211 14.2081 19.6855 13.3153C19.6791 13.1612 19.6951 13.1593 19.7324 13.3095C19.9943 14.3717 20.216 15.4673 20.2747 16.5732C20.3912 18.7703 20.3696 20.8938 20.2101 22.9427C20.2064 22.9874 20.2179 23.0276 20.2444 23.0634C20.2667 23.0938 20.312 23.0914 20.3336 23.0609C21.0483 22.0318 21.7009 20.901 22.294 19.6688C23.0066 18.189 23.3941 16.518 23.3671 14.886C23.3107 11.4535 21.4268 8.62344 18.5045 6.88948Z" fill="#368501"/>
<path d="M17.8314 20.1661C16.6941 18.5996 14.9838 17.7 13.0488 17.5674C12.6765 17.5428 12.2955 17.5305 11.9069 17.5321C11.7644 17.5324 11.6233 17.5427 11.4835 17.5628C11.423 17.5708 11.4079 17.6532 11.462 17.6822C11.9205 17.933 12.3282 18.2488 12.686 18.6311C13.3742 19.3671 14.1215 19.9635 14.9276 20.4213C15.8073 20.92 16.8484 21.289 17.812 21.6532C18.267 21.8244 18.6571 22.0556 18.9811 22.3453C19.1044 22.4549 19.1269 22.4379 19.049 22.2918C18.6523 21.551 18.3714 20.9104 17.8314 20.1661Z" fill="#368501"/>
<path d="M28.3672 16.7731C28.0625 15.2423 27.3867 13.788 26.3421 12.4106C25.6713 11.5254 24.7363 10.7857 23.8348 10.0959C23.819 10.0844 23.7964 10.0905 23.7895 10.1092C23.7772 10.1444 23.7783 10.1786 23.7952 10.2134C24.9812 12.6753 25.0655 15.5945 24.3316 18.2214C24.3076 18.3076 24.3313 18.3248 24.403 18.2705C24.8488 17.9331 25.2567 17.4965 25.4871 16.9907C25.5656 16.8178 25.6471 16.6501 25.7307 16.4863C25.7352 16.4783 25.7417 16.4741 25.7506 16.4714C25.7618 16.469 25.7713 16.4712 25.7805 16.4759C25.7885 16.4804 25.7915 16.4868 25.7894 16.4951C25.5986 17.3644 25.3727 18.1203 25.1091 18.7638C24.8917 19.2965 24.6688 19.8227 24.442 20.341C24.1923 20.9129 23.9768 21.5725 23.7957 22.3199C23.5642 23.2725 23.6419 24.2039 24.3722 24.9116C24.5327 25.1263 24.7511 25.3011 25.0244 25.1725C26.5381 24.4544 27.5578 22.9264 28.0546 21.3818C28.31 20.5901 28.451 19.7191 28.4792 18.7663C28.5286 18.0545 28.4913 17.3893 28.3672 16.7731Z" fill="#368501"/>
</svg>
