<svg width="17" height="16" viewBox="0 0 17 16" fill="none" xmlns="http://www.w3.org/2000/svg">
<g clip-path="url(#clip0_9816_15477)">
<path d="M4.89601 3.28599L3.95335 2.34332C3.69335 2.08299 3.27068 2.08299 3.01068 2.34332C2.75035 2.60365 2.75035 3.02565 3.01068 3.28599L3.95335 4.22865C4.08335 4.35899 4.25401 4.42399 4.42468 4.42399C4.59535 4.42399 4.76601 4.35899 4.89601 4.22865C5.15635 3.96832 5.15635 3.54632 4.89601 3.28599Z" fill="white"/>
<path d="M2.66699 7.33337H1.33366C0.965659 7.33337 0.666992 7.63204 0.666992 8.00004C0.666992 8.36804 0.965659 8.66671 1.33366 8.66671H2.66699C3.03499 8.66671 3.33366 8.36804 3.33366 8.00004C3.33366 7.63204 3.03499 7.33337 2.66699 7.33337Z" fill="white"/>
<path d="M4.89601 11.7713C4.63601 11.511 4.21335 11.511 3.95335 11.7713L3.01068 12.714C2.75035 12.9743 2.75035 13.3963 3.01068 13.6566C3.14068 13.787 3.31135 13.852 3.48201 13.852C3.65268 13.852 3.82335 13.787 3.95335 13.6566L4.89601 12.714C5.15635 12.4536 5.15635 12.0316 4.89601 11.7713Z" fill="white"/>
<path d="M8.66667 13.3334C8.29867 13.3334 8 13.632 8 14V15.3334C8 15.7014 8.29867 16 8.66667 16C9.03467 16 9.33333 15.7014 9.33333 15.3334V14C9.33333 13.632 9.03467 13.3334 8.66667 13.3334Z" fill="white"/>
<path d="M14.3237 12.714L13.3811 11.7713C13.1211 11.511 12.6984 11.511 12.4384 11.7713C12.1781 12.0316 12.1781 12.4536 12.4384 12.714L13.3811 13.6566C13.5111 13.787 13.6817 13.852 13.8524 13.852C14.0231 13.852 14.1937 13.787 14.3237 13.6566C14.5841 13.3963 14.5841 12.9743 14.3237 12.714Z" fill="white"/>
<path d="M16 7.33337H14.6667C14.2987 7.33337 14 7.63204 14 8.00004C14 8.36804 14.2987 8.66671 14.6667 8.66671H16C16.368 8.66671 16.6667 8.36804 16.6667 8.00004C16.6667 7.63204 16.368 7.33337 16 7.33337Z" fill="white"/>
<path d="M14.3237 2.34332C14.0637 2.08299 13.6411 2.08299 13.3811 2.34332L12.4384 3.28599C12.1781 3.54632 12.1781 3.96832 12.4384 4.22865C12.5684 4.35899 12.7391 4.42399 12.9097 4.42399C13.0804 4.42399 13.2511 4.35899 13.3811 4.22865L14.3237 3.28599C14.5841 3.02565 14.5841 2.60365 14.3237 2.34332Z" fill="white"/>
<path d="M8.66667 0C8.29867 0 8 0.298667 8 0.666667V2C8 2.368 8.29867 2.66667 8.66667 2.66667C9.03467 2.66667 9.33333 2.368 9.33333 2V0.666667C9.33333 0.298667 9.03467 0 8.66667 0Z" fill="white"/>
<path d="M8.66732 3.66663C6.27798 3.66663 4.33398 5.61063 4.33398 7.99996C4.33398 10.3893 6.27798 12.3333 8.66732 12.3333C11.0567 12.3333 13.0007 10.3893 13.0007 7.99996C13.0007 5.61063 11.0567 3.66663 8.66732 3.66663ZM8.66732 11C7.01332 11 5.66732 9.65396 5.66732 7.99996C5.66732 6.34596 7.01332 4.99996 8.66732 4.99996C10.3213 4.99996 11.6673 6.34596 11.6673 7.99996C11.6673 9.65396 10.3213 11 8.66732 11Z" fill="white"/>
</g>
<defs>
<clipPath id="clip0_9816_15477">
<rect width="16" height="16" fill="white" transform="translate(0.666992)"/>
</clipPath>
</defs>
</svg>
