<svg width="16" height="16" viewBox="0 0 16 16" fill="none" xmlns="http://www.w3.org/2000/svg">
<path d="M12.667 4.66675C12.4902 4.66675 12.3206 4.73699 12.1956 4.86201C12.0706 4.98703 12.0003 5.1566 12.0003 5.33341V12.7941C11.9812 13.1312 11.8296 13.4471 11.5787 13.673C11.3277 13.8989 10.9976 14.0165 10.6603 14.0001H5.34033C5.00306 14.0165 4.67298 13.8989 4.422 13.673C4.17101 13.4471 4.01945 13.1312 4.00033 12.7941V5.33341C4.00033 5.1566 3.93009 4.98703 3.80506 4.86201C3.68004 4.73699 3.51047 4.66675 3.33366 4.66675C3.15685 4.66675 2.98728 4.73699 2.86225 4.86201C2.73723 4.98703 2.66699 5.1566 2.66699 5.33341V12.7941C2.68602 13.4849 2.97805 14.14 3.47911 14.616C3.98018 15.0919 4.64944 15.3499 5.34033 15.3334H10.6603C11.3512 15.3499 12.0205 15.0919 12.5215 14.616C13.0226 14.14 13.3146 13.4849 13.3337 12.7941V5.33341C13.3337 5.1566 13.2634 4.98703 13.1384 4.86201C13.0134 4.73699 12.8438 4.66675 12.667 4.66675Z" fill="#FF6B6B"/>
<path d="M13.3333 2.66675H10.6667V1.33341C10.6667 1.1566 10.5964 0.987034 10.4714 0.86201C10.3464 0.736986 10.1768 0.666748 10 0.666748H6C5.82319 0.666748 5.65362 0.736986 5.5286 0.86201C5.40357 0.987034 5.33333 1.1566 5.33333 1.33341V2.66675H2.66667C2.48986 2.66675 2.32029 2.73699 2.19526 2.86201C2.07024 2.98703 2 3.1566 2 3.33341C2 3.51023 2.07024 3.6798 2.19526 3.80482C2.32029 3.92984 2.48986 4.00008 2.66667 4.00008H13.3333C13.5101 4.00008 13.6797 3.92984 13.8047 3.80482C13.9298 3.6798 14 3.51023 14 3.33341C14 3.1566 13.9298 2.98703 13.8047 2.86201C13.6797 2.73699 13.5101 2.66675 13.3333 2.66675ZM6.66667 2.66675V2.00008H9.33333V2.66675H6.66667Z" fill="#FF6B6B"/>
<path d="M7.33333 11.3333V6.66667C7.33333 6.48986 7.2631 6.32029 7.13807 6.19526C7.01305 6.07024 6.84348 6 6.66667 6C6.48986 6 6.32029 6.07024 6.19526 6.19526C6.07024 6.32029 6 6.48986 6 6.66667V11.3333C6 11.5101 6.07024 11.6797 6.19526 11.8047C6.32029 11.9298 6.48986 12 6.66667 12C6.84348 12 7.01305 11.9298 7.13807 11.8047C7.2631 11.6797 7.33333 11.5101 7.33333 11.3333Z" fill="#FF6B6B"/>
<path d="M10.0003 11.3333V6.66667C10.0003 6.48986 9.93009 6.32029 9.80506 6.19526C9.68004 6.07024 9.51047 6 9.33366 6C9.15685 6 8.98728 6.07024 8.86225 6.19526C8.73723 6.32029 8.66699 6.48986 8.66699 6.66667V11.3333C8.66699 11.5101 8.73723 11.6797 8.86225 11.8047C8.98728 11.9298 9.15685 12 9.33366 12C9.51047 12 9.68004 11.9298 9.80506 11.8047C9.93009 11.6797 10.0003 11.5101 10.0003 11.3333Z" fill="#FF6B6B"/>
</svg>
