<svg width="15" height="14" viewBox="0 0 15 14" fill="none" xmlns="http://www.w3.org/2000/svg">
<path d="M8.95979 1.5435C8.6365 1.06806 8.35123 0.630661 8.08499 0.231293C8.04695 0.17424 7.9899 0.117187 7.93285 0.0791524C7.70464 -0.0729879 7.40036 0.00308221 7.24822 0.231293C7.00099 0.630661 6.71572 1.04905 6.37341 1.5435C4.87102 3.74954 2.62695 7.07761 2.62695 8.97936C2.62695 10.3676 3.19748 11.6228 4.11032 12.5356C5.02316 13.4295 6.27832 14 7.6666 14C9.05488 14 10.31 13.4295 11.2229 12.5166C12.1357 11.6038 12.7062 10.3486 12.7062 8.96034C12.7062 7.05859 10.4622 3.74954 8.95979 1.5435ZM10.5382 11.832C9.79657 12.5737 8.78864 13.0111 7.6666 13.0111C6.54457 13.0111 5.53664 12.5547 4.79495 11.832C4.05327 11.0903 3.61587 10.0824 3.61587 8.96034C3.61587 7.36287 5.76485 4.18694 7.19116 2.07599C7.36232 1.82877 7.51446 1.58154 7.6666 1.37235C7.81874 1.58154 7.97088 1.82877 8.14204 2.07599C9.56836 4.20596 11.7173 7.36287 11.7173 8.96034C11.7173 10.0824 11.2609 11.0903 10.5382 11.832Z" fill="white"/>
<path d="M10.6149 8.61802C10.3486 8.59901 10.1204 8.8082 10.1014 9.07444C10.0824 9.49283 9.94928 9.8922 9.74009 10.2345C9.53089 10.5768 9.22661 10.8811 8.86528 11.0713C8.63707 11.2044 8.54198 11.5087 8.6751 11.7369C8.82724 12.0031 9.13152 12.0792 9.35974 11.9461C9.87321 11.6608 10.2916 11.2424 10.5769 10.767C10.8811 10.2916 11.0523 9.72104 11.0713 9.1315C11.0903 8.86525 10.8811 8.63704 10.6149 8.61802Z" fill="white"/>
</svg>
